PathFileType	4	(X/Y/Z)	Walk7.trc
DataRate	CameraRate	NumFrames	NumMarkers	Units	OrigDataRate	OrigDataStartFrame	OrigNumFrames
200.000000	200.000000	4	59	mm	200.000000	230	533
Frame#	Times		LBHD		C7		T10		RBack		LPSI		RPSI		RCAR		LElbowM		LLFC		LFHD		LUA1		RElbowM		RUA1		RWRR		CLAV		LCAR		RFA1		LFA1		LWRU		RTH2		RTH3		RTB1		LACR1		RACR1		LWRR		RTB3		RToe		RMT1		RLFC		RTH4		RCAL		RMT5		RTB4		LTB3		RWRU		LTH1		RFHD		RBHD		RTB2		RTH1		LTH4		LTH3		LElbow		STRN		RMMAL		RElbow		LTH2		RASI		LTB2		RLMAL		LASI		LCAL		LMT1		LLMAL		LMT5		LMMAL		LToe		LTB1		LTB4
			X1	Y1	Z1	X2	Y2	Z2	X3	Y3	Z3	X4	Y4	Z4	X5	Y5	Z5	X6	Y6	Z6	X7	Y7	Z7	X8	Y8	Z8	X9	Y9	Z9	X10	Y10	Z10	X11	Y11	Z11	X12	Y12	Z12	X13	Y13	Z13	X14	Y14	Z14	X15	Y15	Z15	X16	Y16	Z16	X17	Y17	Z17	X18	Y18	Z18	X19	Y19	Z19	X20	Y20	Z20	X21	Y21	Z21	X22	Y22	Z22	X23	Y23	Z23	X24	Y24	Z24	X25	Y25	Z25	X26	Y26	Z26	X27	Y27	Z27	X28	Y28	Z28	X29	Y29	Z29	X30	Y30	Z30	X31	Y31	Z31	X32	Y32	Z32	X33	Y33	Z33	X34	Y34	Z34	X35	Y35	Z35	X36	Y36	Z36	X37	Y37	Z37	X38	Y38	Z38	X39	Y39	Z39	X40	Y40	Z40	X41	Y41	Z41	X42	Y42	Z42	X43	Y43	Z43	X44	Y44	Z44	X45	Y45	Z45	X46	Y46	Z46	X47	Y47	Z47	X48	Y48	Z48	X49	Y49	Z49	X50	Y50	Z50	X51	Y51	Z51	X52	Y52	Z52	X53	Y53	Z53	X54	Y54	Z54	X55	Y55	Z55	X56	Y56	Z56	X57	Y57	Z57	X58	Y58	Z58	X59	Y59	Z59

230	1.15	-808.98	1466.5	-64.134	-825.46	1329.1	5.6264	-842.47	1063.2	1.9784	-844	1229.5	136.88	-860.95	871.21	-36.538	-870.22	889.07	61.012	-513.51	784.28	296.67	-801.91	945.7	-187.82	-570.36	451.32	-122.43	-638.04	1484	-38.473	-740.06	1097.2	-239.47	-727.27	934.48	214.29	-711.36	1128.2	243.61	-514.56	826.62	247.54	-693.24	1260.9	11.405	-658.48	706.04	-308.68	-637.19	872.86	290.87	-748.43	859.92	-286.15	-713.48	740.79	-304.94	-705.33	623.9	166.46	-798.85	541.94	170.99	-835.13	320.35	58.137	-738.39	1269.8	-157.82	-749.81	1277.2	160.89	-656.41	744.03	-258.19	-903.51	148.07	48.861	-822.49	24.47	22.143	-878.97	44.225	19.609	-811.51	442.17	148.23	-775.77	630.83	198.9	-1025.2	71.22	81.068	-892.36	37.717	78.976	-874.64	236.96	57.354	-448.05	184.72	-39.326	-572.13	785.61	272.19	-672.28	724.37	-178.41	-636.03	1492.2	39.255	-814.26	1472.3	58.928	-888.22	238.8	127.6	-751.52	712.3	228.32	-627.4	644.81	-154.77	-587.32	561.44	-130.6	-777.23	979.58	-254.95	-626.21	1158.4	11.817	-966.19	90.314	15.938	-693.24	987.55	286.37	-576.53	684.24	-118.75	-736.37	874.72	168.36	-506.94	260.8	-109.58	-957.68	78.595	96.052	-729.12	854.04	-139.61	-491.69	28.809	-37.69	-349.21	90.352	-42.225	-462.53	74.774	-81.794	-368.51	67.389	-94.309	-441.32	86.282	-6.0399	-297.92	88.461	-58.735	-499.14	359.94	-45.944	-482.34	269.37	-43.221
231	1.155	-803.28	1466.1	-65.214	-819.85	1328.6	4.2791	-836.36	1062.6	1.0853	-838.48	1229	135.63	-854.62	871.08	-36.978	-864.09	888.86	60.601	-507.4	784.18	295.51	-796.14	945.17	-188.44	-564.27	450.87	-122.25	-632.36	1483.6	-39.384	-734.16	1096.6	-240.43	-721.34	934.14	213.19	-705.62	1127.9	242.5	-508.54	826.46	246.34	-687.53	1260.6	10.326	-653.5	705.13	-309.42	-631.17	872.64	289.75	-743.07	859.23	-286.85	-708.4	740.02	-305.63	-700.15	623.4	166.61	-793.91	541.62	170.78	-831.36	320.12	57.844	-732.38	1269.2	-158.98	-744.35	1276.9	159.71	-651.24	743.14	-258.96	-901.82	148.66	48.705	-822.55	24.438	22.012	-878.66	44.403	19.502	-806.68	441.79	148.04	-770.74	630.45	198.73	-1024.4	73.411	81.055	-892.04	38.018	78.938	-871.86	237.21	57.163	-444.15	183.29	-38.692	-566.05	785.43	271.08	-666.44	723.87	-178.35	-630.44	1491.8	38.378	-808.68	1471.8	57.848	-885.38	239.1	127.35	-746.44	711.92	228.14	-621.4	644.35	-154.78	-581.2	561.05	-130.59	-771.58	978.93	-255.66	-620.37	1158.2	10.92	-965.21	91.684	15.91	-687.26	987.3	285.28	-570.12	683.89	-119.54	-725.28	874.52	167.92	-502.18	259.85	-109.05	-956.83	79.794	95.916	-730.56	854.47	-139.48	-489.4	28.495	-37.583	-346.16	87.789	-41.289	-459.53	73.684	-81.393	-365.65	65.098	-93.415	-438.53	84.789	-5.5311	-294.5	84.788	-57.529	-493.88	358.86	-45.403	-477.72	268.21	-42.672
232	1.16	-797.58	1465.9	-66.324	-814.22	1328.1	2.8899	-830.21	1062.1	0.20568	-832.94	1228.5	134.35	-848.26	871.03	-37.381	-857.92	888.72	60.232	-501.43	784.09	294.37	-790.32	944.69	-189.06	-558.25	450.46	-122.06	-626.67	1483.3	-40.315	-728.19	1096	-241.39	-715.5	933.87	212.07	-699.91	1127.7	241.37	-502.64	826.31	245.15	-681.8	1260.3	9.2095	-648.5	704.25	-310.15	-625.25	872.45	288.62	-737.67	858.57	-287.53	-703.31	739.29	-306.3	-694.83	622.96	166.74	-788.8	541.32	170.58	-827.42	319.92	57.572	-726.35	1268.6	-160.16	-738.86	1276.5	158.49	-646.04	742.31	-259.74	-900.01	149.33	48.572	-822.63	24.398	21.874	-878.32	44.598	19.4	-801.63	441.43	147.89	-765.56	630.11	198.55	-1023.5	75.769	81.053	-891.67	38.346	78.909	-868.94	237.51	56.995	-440.5	181.85	-38.108	-560.11	785.27	269.98	-660.45	723.51	-178.27	-624.84	1491.4	37.482	-803.1	1471.4	56.741	-882.38	239.44	127.11	-741.24	711.6	227.94	-615.32	643.99	-154.76	-575.08	560.72	-130.56	-765.87	978.33	-256.38	-614.51	1158	9.973	-964.12	93.166	15.909	-681.34	987.12	284.18	-563.62	683.58	-120.28	-714.01	874.32	167.47	-497.65	258.94	-108.55	-955.88	81.114	95.83	-732.1	854.95	-139.33	-487.5	28.283	-37.513	-343.43	85.111	-40.412	-456.9	72.61	-81.032	-363.16	62.67	-92.549	-436.05	83.288	-5.073	-291.38	80.868	-56.37	-488.74	357.81	-44.902	-473.28	267.07	-42.165
233	1.165	-791.86	1465.7	-67.463	-808.58	1327.8	1.4609	-824.03	1061.6	-0.65822	-827.38	1228.2	133.03	-841.87	871.07	-37.751	-851.74	888.67	59.9	-495.6	784	293.24	-784.45	944.29	-189.7	-552.33	450.11	-121.89	-620.96	1483.1	-41.266	-722.16	1095.5	-242.36	-709.73	933.7	210.94	-694.24	1127.6	240.23	-496.85	826.16	243.98	-676.05	1260.1	8.0567	-643.47	703.42	-310.88	-619.44	872.32	287.5	-732.24	857.96	-288.22	-698.19	738.6	-306.97	-689.37	622.59	166.85	-783.51	541.05	170.4	-823.3	319.75	57.329	-720.32	1268.2	-161.39	-733.36	1276.3	157.22	-640.8	741.52	-260.53	-898.07	150.1	48.465	-822.72	24.351	21.73	-877.93	44.808	19.303	-796.36	441.09	147.78	-760.22	629.81	198.37	-1022.5	78.307	81.053	-891.25	38.702	78.887	-865.86	237.88	56.853	-437.07	180.45	-37.581	-554.3	785.14	268.87	-654.3	723.29	-178.17	-619.24	1491	36.568	-797.51	1471	55.606	-879.2	239.83	126.91	-735.92	711.33	227.72	-609.18	643.72	-154.71	-568.97	560.44	-130.51	-760.11	977.79	-257.1	-608.62	1157.9	8.9769	-962.89	94.766	15.934	-675.5	987.01	283.07	-557.02	683.31	-120.97	-702.56	874.14	167.01	-493.31	258.08	-108.09	-954.81	82.569	95.8	-733.7	855.47	-139.18	-485.93	28.182	-37.486	-340.97	82.375	-39.607	-454.55	71.586	-80.72	-360.98	60.161	-91.724	-433.82	81.823	-4.6737	-288.52	76.771	-55.271	-483.73	356.81	-44.45	-469.01	265.98	-41.712
